<?xml version="1.0" standalone="no"?>
<!DOCTYPE svg PUBLIC "-//W3C//DTD SVG 20010904//EN"
 "http://www.w3.org/TR/2001/REC-SVG-20010904/DTD/svg10.dtd">
<svg version="1.0" xmlns="http://www.w3.org/2000/svg"
 width="512.000000pt" height="512.000000pt" viewBox="0 0 512.000000 512.000000"
 preserveAspectRatio="xMidYMid meet">

<g transform="translate(0.000000,512.000000) scale(0.100000,-0.100000)"
fill="#000000" stroke="none">
<path d="M2004 5105 c-38 -26 -46 -64 -42 -205 3 -130 3 -132 31 -156 34 -29
67 -31 98 -5 22 18 24 28 27 125 l4 106 284 0 285 0 -3 -277 c-3 -266 -4 -280
-26 -324 -31 -64 -86 -117 -151 -148 -52 -24 -68 -26 -223 -29 l-168 -4 0 142
0 142 -30 29 c-23 24 -34 28 -57 23 -15 -3 -37 -15 -48 -25 -19 -19 -20 -33
-20 -274 l0 -255 28 -27 27 -28 520 -3 c347 -2 534 1 560 8 62 17 70 42 70
215 0 80 2 145 4 145 2 0 43 -16 92 -36 487 -195 888 -601 1075 -1089 10 -27
19 -53 19 -56 0 -3 -37 -9 -82 -13 -46 -4 -93 -14 -106 -22 -34 -22 -48 -60
-36 -92 14 -37 439 -640 475 -674 36 -35 79 -36 112 -6 33 31 357 736 357 777
0 21 -9 41 -26 58 -25 25 -27 25 -132 18 -59 -4 -111 -8 -115 -8 -5 -1 -25 45
-46 103 -144 401 -369 734 -676 997 -225 194 -513 358 -780 444 l-134 44 -1
168 0 169 -29 29 -29 29 -544 0 c-460 0 -547 -2 -564 -15z m1521 -679 c239
-118 407 -239 591 -428 241 -246 409 -525 516 -853 52 -160 62 -170 175 -161
l82 6 -14 -32 c-56 -133 -212 -455 -220 -455 -5 -1 -79 97 -163 216 l-153 216
53 8 c83 13 92 15 111 29 35 26 37 70 7 160 -175 519 -558 953 -1055 1193 -71
34 -165 75 -207 90 l-78 28 0 63 0 63 103 -35 c56 -19 170 -68 252 -108z"/>
<path d="M1180 4414 c-190 -18 -351 -33 -358 -33 -22 -1 -62 -52 -62 -78 0
-31 11 -52 71 -135 27 -37 49 -73 49 -79 0 -6 -24 -37 -53 -68 -223 -242 -424
-622 -512 -970 -108 -428 -92 -882 46 -1294 l39 -118 -180 -277 c-196 -301
-204 -319 -155 -367 l24 -25 699 0 c688 0 699 0 720 20 27 26 38 65 24 94 -20
45 -673 1042 -693 1059 -28 23 -70 22 -102 -3 -14 -11 -27 -20 -30 -20 -15 0
-32 197 -31 370 0 201 11 294 55 465 67 261 201 527 375 740 l30 37 55 -73
c62 -85 92 -101 142 -77 30 14 46 46 205 390 94 205 172 386 172 401 0 16 -10
38 -25 52 -32 33 -62 32 -505 -11z m224 -371 c-63 -136 -116 -248 -118 -250
-1 -2 -18 18 -36 45 -18 26 -43 55 -54 64 -28 23 -78 22 -109 -2 -36 -28 -165
-190 -231 -290 -302 -454 -410 -1055 -286 -1586 22 -93 22 -92 -32 -172 -17
-24 -32 -41 -35 -39 -9 10 -54 185 -74 292 -27 140 -37 478 -19 622 52 424
227 831 492 1148 41 50 88 101 103 115 38 35 58 77 50 108 -3 14 -24 50 -46
80 -21 31 -37 58 -34 60 5 5 438 48 507 51 l36 1 -114 -247z m-338 -2515 l262
-403 -535 -3 c-295 -1 -538 0 -540 2 -3 2 102 168 233 368 130 199 251 385
267 411 20 32 34 44 40 38 6 -6 129 -192 273 -413z"/>
<path d="M2321 3583 c-14 -12 -30 -53 -49 -128 l-29 -109 -48 -20 -48 -20 -46
26 c-25 14 -72 40 -104 58 -44 24 -65 30 -85 25 -16 -4 -86 -64 -170 -148
-136 -134 -172 -178 -172 -210 0 -7 25 -55 55 -106 30 -51 55 -101 54 -110 0
-9 -8 -34 -18 -55 -17 -39 -18 -40 -127 -68 -74 -19 -115 -35 -126 -49 -16
-19 -18 -47 -18 -244 0 -276 -7 -261 148 -299 l108 -27 18 -53 18 -54 -56 -94
c-31 -51 -56 -105 -56 -118 0 -17 43 -67 162 -187 193 -194 181 -190 319 -109
l92 54 49 -19 c27 -10 50 -19 52 -19 1 0 13 -46 26 -102 19 -79 31 -110 51
-131 l27 -27 211 0 c115 0 221 4 235 10 32 12 48 45 75 156 l22 91 51 21 51
21 91 -54 c139 -83 129 -86 318 103 189 189 186 179 103 318 l-54 91 21 51 21
51 91 22 c111 27 144 43 156 75 6 14 10 120 10 235 l0 211 -27 27 c-21 20 -52
32 -130 50 l-101 24 -21 54 -20 53 54 90 c82 136 86 125 -108 318 -120 119
-170 162 -187 162 -13 0 -67 -25 -118 -56 l-94 -56 -54 18 -53 18 -27 108
c-38 155 -23 148 -299 148 -197 0 -225 -2 -244 -17z m394 -843 c59 -29 126
-93 154 -148 11 -21 25 -68 32 -103 10 -54 9 -74 -5 -129 -28 -110 -81 -175
-186 -231 -38 -20 -59 -24 -140 -24 -86 0 -101 3 -154 30 -65 33 -123 92 -157
163 -19 38 -24 63 -24 137 0 79 4 97 28 147 34 70 109 140 180 167 74 30 202
26 272 -9z"/>
<path d="M4252 1959 c-60 -11 -94 -30 -111 -60 -19 -35 -8 -75 28 -94 25 -13
37 -13 97 0 122 26 218 14 333 -42 68 -33 170 -133 203 -198 84 -166 77 -351
-20 -501 -100 -155 -295 -242 -478 -214 -150 23 -297 127 -361 258 -79 157
-68 353 27 494 35 51 37 76 9 112 -29 36 -81 36 -115 -1 -35 -38 -91 -156
-110 -233 -25 -98 -15 -272 20 -365 l26 -70 -37 -33 c-61 -54 -230 -164 -338
-219 -274 -140 -549 -204 -865 -204 -142 1 -342 19 -356 34 -3 2 11 37 31 78
38 80 41 95 24 132 -21 47 -46 52 -190 39 -113 -9 -135 -14 -155 -33 -34 -32
-32 -81 3 -109 25 -19 36 -21 91 -15 64 7 64 7 57 -17 -4 -12 -16 -40 -26 -60
-26 -51 -24 -90 6 -120 68 -69 516 -104 799 -64 349 50 686 189 958 397 43 33
80 59 83 59 3 0 24 -18 47 -41 36 -35 40 -43 27 -52 -8 -7 -42 -33 -74 -58
-257 -199 -583 -344 -915 -408 -295 -56 -569 -52 -876 15 -155 33 -164 30
-215 -75 l-35 -74 -36 49 c-140 195 -279 396 -275 400 2 3 28 7 58 11 69 8
104 40 95 86 -11 56 -39 70 -126 63 -175 -15 -193 -18 -217 -42 -49 -49 -43
-62 213 -424 130 -184 241 -338 248 -343 24 -16 58 -19 86 -7 24 10 39 32 77
112 l47 100 36 -6 c19 -3 71 -12 115 -20 404 -72 855 -28 1233 119 227 89 465
227 634 368 l77 64 73 -26 c62 -21 90 -25 193 -25 108 0 128 3 205 30 108 38
181 86 264 174 71 76 134 192 157 290 17 76 15 222 -6 300 -59 228 -255 417
-482 465 -74 16 -193 18 -261 4z"/>
</g>
</svg>
