<?xml version="1.0" encoding="UTF-8"?>
<svg xmlns="http://www.w3.org/2000/svg" xmlns:xlink="http://www.w3.org/1999/xlink" width="200px" height="200px" viewBox="0 0 200 200" version="1.1">
<g id="surface1">
<path style=" stroke:none;fill-rule:nonzero;fill:rgb(0%,0%,0%);fill-opacity:1;" d="M 93.75 17.460938 C 63.59375 20.664062 38.203125 40.039062 27.695312 67.773438 L 26.210938 71.679688 L 20.3125 71.875 C 14.414062 72.070312 14.375 72.070312 13.4375 73.164062 C 11.914062 74.960938 12.1875 76.445312 14.570312 79.570312 C 22.734375 90.3125 33.398438 103.476562 34.21875 103.867188 C 35.703125 104.53125 36.875 104.414062 38.203125 103.398438 C 40.039062 102.109375 60.78125 77.617188 61.09375 76.445312 C 61.40625 75.195312 60.898438 73.867188 59.765625 72.851562 C 58.945312 72.109375 58.203125 72.070312 48.398438 71.875 L 37.890625 71.679688 L 40.234375 66.875 C 43.085938 60.976562 45.78125 56.796875 49.804688 52.03125 C 59.023438 41.015625 73.125 32.773438 88.085938 29.609375 C 91.875 28.828125 93.4375 28.710938 101.171875 28.710938 C 108.789062 28.75 110.507812 28.867188 114.023438 29.609375 C 129.101562 32.890625 142.03125 40.351562 151.5625 51.25 C 157.695312 58.320312 162.304688 66.328125 165.039062 74.84375 C 165.859375 77.382812 166.953125 80.039062 167.460938 80.742188 C 169.726562 83.867188 174.960938 83.203125 176.71875 79.53125 C 177.617188 77.617188 177.539062 76.757812 175.78125 71.40625 C 169.101562 51.015625 154.0625 34.0625 134.453125 24.6875 C 126.5625 20.976562 117.773438 18.476562 108.984375 17.578125 C 105.46875 17.226562 96.679688 17.148438 93.75 17.460938 Z M 162.65625 96.484375 C 161.914062 96.757812 141.523438 120.039062 139.726562 122.65625 C 138.671875 124.140625 138.867188 126.054688 140.195312 127.382812 L 141.328125 128.515625 L 151.523438 128.515625 C 158.710938 128.515625 161.71875 128.632812 161.71875 128.945312 C 161.71875 129.726562 158.59375 136.054688 156.757812 139.0625 C 147.773438 153.59375 133.828125 164.296875 117.773438 168.945312 C 110.625 171.015625 105.703125 171.601562 97.070312 171.367188 C 85.546875 171.054688 78.554688 169.375 68.554688 164.414062 C 52.148438 156.328125 40.429688 142.773438 34.414062 124.804688 C 32.695312 119.726562 31.953125 118.671875 29.375 117.96875 C 25.820312 117.03125 22.65625 119.609375 22.65625 123.398438 C 22.65625 127.382812 28.4375 140.820312 33.164062 147.851562 C 43.4375 163.085938 58.945312 174.53125 76.132812 179.53125 C 93.398438 184.570312 111.796875 183.75 127.929688 177.226562 C 133.203125 175.117188 135.507812 173.945312 139.921875 171.210938 C 155.039062 161.875 166.5625 148.007812 172.65625 131.914062 L 173.945312 128.515625 L 179.492188 128.515625 C 184.492188 128.515625 185.15625 128.4375 186.054688 127.734375 C 187.34375 126.71875 187.773438 124.648438 187.03125 123.164062 C 185.9375 120.976562 166.367188 96.835938 165.390625 96.445312 C 164.21875 96.015625 163.75 96.015625 162.65625 96.484375 Z M 162.65625 96.484375 "/>
</g>
</svg>
