<?xml version="1.0" encoding="UTF-8"?>
<svg xmlns="http://www.w3.org/2000/svg" xmlns:xlink="http://www.w3.org/1999/xlink" width="200px" height="200px" viewBox="0 0 200 200" version="1.1">
<g id="surface1">
<path style=" stroke:none;fill-rule:nonzero;fill:rgb(0%,0%,0%);fill-opacity:1;" d="M 95.742188 10.976562 C 87.265625 12.382812 79.804688 19.375 77.539062 27.929688 C 76.796875 30.898438 76.796875 36.289062 77.539062 39.257812 C 78.867188 44.453125 82.773438 49.960938 87.148438 52.734375 C 89.375 54.179688 89.84375 55.078125 89.84375 57.734375 C 89.84375 58.828125 90.15625 60.15625 90.625 61.054688 C 91.25 62.226562 91.40625 63.242188 91.40625 66.679688 C 91.40625 70.078125 91.5625 71.132812 92.1875 72.421875 C 93.476562 75.078125 94.53125 75.546875 98.984375 75.703125 C 103.828125 75.898438 105.507812 75.429688 106.914062 73.554688 C 107.96875 72.1875 108.007812 71.875 108.125 67.265625 C 108.242188 63.320312 108.398438 62.1875 109.023438 61.171875 C 109.453125 60.46875 109.765625 59.257812 109.765625 58.164062 C 109.765625 55.195312 110.390625 54.101562 113.085938 52.1875 C 122.734375 45.273438 125.429688 32.148438 119.335938 21.640625 C 118.75 20.585938 117.070312 18.554688 115.625 17.148438 C 110.429688 12.03125 103.125 9.765625 95.742188 10.976562 Z M 102.734375 14.84375 C 115 16.757812 122.1875 30.3125 116.875 41.523438 C 115.351562 44.804688 113.789062 46.640625 110.429688 49.21875 C 106.992188 51.914062 106.210938 53.164062 105.976562 56.5625 C 105.742188 59.492188 105.273438 60.15625 103.242188 60.15625 L 101.953125 60.15625 L 101.953125 48.554688 L 105.078125 45.742188 L 108.203125 42.890625 L 108.203125 35.546875 L 109.726562 35.546875 C 111.40625 35.546875 112.5 34.765625 112.5 33.59375 C 112.5 33.203125 112.226562 32.578125 111.875 32.265625 C 111.367188 31.71875 109.726562 31.640625 100 31.640625 C 90.273438 31.640625 88.632812 31.71875 88.125 32.265625 C 86.640625 33.710938 87.851562 35.546875 90.273438 35.546875 L 91.796875 35.546875 L 91.796875 42.890625 L 94.921875 45.742188 L 98.046875 48.554688 L 98.046875 60.15625 L 96.601562 60.15625 C 94.53125 60.15625 93.75 59.257812 93.75 56.875 C 93.75 54.453125 92.695312 51.992188 91.171875 50.859375 C 86.640625 47.382812 85.546875 46.367188 84.101562 44.21875 C 78.789062 36.367188 80.195312 25.429688 87.226562 19.296875 C 90.15625 16.757812 95.273438 14.726562 99.414062 14.492188 C 99.84375 14.492188 101.328125 14.648438 102.734375 14.84375 Z M 104.257812 38.359375 L 104.21875 41.210938 L 100 45.039062 L 95.78125 41.210938 L 95.742188 38.359375 L 95.703125 35.546875 L 104.296875 35.546875 Z M 104.296875 67.34375 C 104.296875 71.640625 104.101562 71.875 99.921875 71.875 C 95.585938 71.875 95.3125 71.601562 95.3125 67.304688 L 95.3125 64.0625 L 104.296875 64.0625 Z M 104.296875 67.34375 "/>
<path style=" stroke:none;fill-rule:nonzero;fill:rgb(0%,0%,0%);fill-opacity:1;" d="M 69.21875 15.3125 C 68.554688 15.976562 68.632812 17.382812 69.453125 18.046875 C 70.820312 19.21875 74.53125 21.09375 75.507812 21.09375 C 76.679688 21.09375 77.5 19.882812 77.148438 18.75 C 76.875 17.851562 71.757812 14.84375 70.546875 14.84375 C 70.078125 14.84375 69.492188 15.039062 69.21875 15.3125 Z M 69.21875 15.3125 "/>
<path style=" stroke:none;fill-rule:nonzero;fill:rgb(0%,0%,0%);fill-opacity:1;" d="M 125.820312 16.40625 C 122.929688 18.125 122.382812 18.828125 123.007812 20.15625 C 123.59375 21.445312 125 21.367188 127.695312 19.84375 C 130.585938 18.242188 131.25 17.617188 131.25 16.601562 C 131.25 14.414062 129.257812 14.335938 125.820312 16.40625 Z M 125.820312 16.40625 "/>
<path style=" stroke:none;fill-rule:nonzero;fill:rgb(0%,0%,0%);fill-opacity:1;" d="M 64.6875 32.265625 C 63.90625 33.046875 63.90625 34.140625 64.6875 34.921875 C 65.15625 35.390625 66.132812 35.546875 68.75 35.546875 C 72.421875 35.546875 73.4375 35.117188 73.4375 33.59375 C 73.4375 32.070312 72.421875 31.640625 68.75 31.640625 C 66.132812 31.640625 65.15625 31.796875 64.6875 32.265625 Z M 64.6875 32.265625 "/>
<path style=" stroke:none;fill-rule:nonzero;fill:rgb(0%,0%,0%);fill-opacity:1;" d="M 127.1875 32.265625 C 126.835938 32.578125 126.5625 33.203125 126.5625 33.59375 C 126.5625 35.117188 127.578125 35.546875 131.25 35.546875 C 134.921875 35.546875 135.9375 35.117188 135.9375 33.59375 C 135.9375 32.070312 134.921875 31.640625 131.25 31.640625 C 128.632812 31.640625 127.65625 31.796875 127.1875 32.265625 Z M 127.1875 32.265625 "/>
<path style=" stroke:none;fill-rule:nonzero;fill:rgb(0%,0%,0%);fill-opacity:1;" d="M 72.226562 47.382812 C 69.296875 49.0625 68.75 49.570312 68.75 50.546875 C 68.75 52.8125 70.664062 52.890625 74.21875 50.742188 C 77.070312 49.0625 77.65625 48.203125 76.953125 46.875 C 76.328125 45.742188 74.804688 45.898438 72.226562 47.382812 Z M 72.226562 47.382812 "/>
<path style=" stroke:none;fill-rule:nonzero;fill:rgb(0%,0%,0%);fill-opacity:1;" d="M 123.046875 46.875 C 122.34375 48.203125 122.96875 49.101562 125.820312 50.742188 C 129.453125 52.851562 131.25 52.773438 131.25 50.585938 C 131.25 49.570312 130.585938 48.945312 127.695312 47.34375 C 125.117188 45.898438 123.632812 45.742188 123.046875 46.875 Z M 123.046875 46.875 "/>
<path style=" stroke:none;fill-rule:nonzero;fill:rgb(0%,0%,0%);fill-opacity:1;" d="M 36.289062 79.804688 C 34.335938 81.132812 33.203125 83.007812 33.203125 85 C 33.203125 87.460938 33.789062 88.632812 36.25 91.09375 L 38.4375 93.359375 L 36.25 95.585938 C 33.554688 98.398438 33.203125 99.0625 33.203125 101.484375 C 33.203125 105 36.015625 107.8125 39.53125 107.8125 C 41.953125 107.8125 42.617188 107.460938 45.429688 104.765625 L 47.65625 102.578125 L 49.921875 104.765625 C 51.132812 105.976562 52.65625 107.1875 53.242188 107.382812 C 57.539062 109.023438 62.109375 105.976562 62.109375 101.484375 C 62.109375 99.0625 61.757812 98.398438 59.0625 95.625 L 56.875 93.398438 L 59.296875 90.898438 C 61.914062 88.164062 62.304688 87.226562 62.03125 84.414062 C 61.71875 81.328125 59.6875 79.296875 56.601562 78.984375 C 53.789062 78.710938 52.851562 79.101562 50.117188 81.71875 L 47.617188 84.140625 L 45.390625 81.953125 C 44.179688 80.742188 42.773438 79.570312 42.304688 79.335938 C 40.820312 78.59375 37.773438 78.828125 36.289062 79.804688 Z M 43.945312 85.9375 C 45.742188 87.65625 47.304688 89.0625 47.460938 89.0625 C 48.203125 89.0625 50.117188 87.617188 52.34375 85.390625 C 55.039062 82.617188 56.09375 82.265625 57.421875 83.59375 C 58.75 84.921875 58.398438 85.976562 55.625 88.671875 C 53.398438 90.898438 51.953125 92.8125 51.953125 93.554688 C 51.953125 93.710938 53.359375 95.273438 55.078125 97.070312 C 57.109375 99.179688 58.203125 100.664062 58.203125 101.210938 C 58.203125 102.304688 56.757812 103.90625 55.78125 103.90625 C 55.351562 103.90625 53.554688 102.5 51.757812 100.78125 C 49.765625 98.867188 48.164062 97.65625 47.65625 97.65625 C 47.148438 97.65625 45.546875 98.867188 43.554688 100.78125 C 41.757812 102.5 40.039062 103.90625 39.726562 103.90625 C 38.789062 103.90625 37.109375 102.34375 37.109375 101.484375 C 37.109375 101.015625 38.398438 99.335938 40.234375 97.421875 C 42.109375 95.46875 43.359375 93.828125 43.359375 93.359375 C 43.359375 92.851562 42.109375 91.210938 40.234375 89.257812 C 36.953125 85.820312 36.5625 84.921875 37.890625 83.59375 C 39.335938 82.148438 40.429688 82.578125 43.945312 85.9375 Z M 43.945312 85.9375 "/>
<path style=" stroke:none;fill-rule:nonzero;fill:rgb(0%,0%,0%);fill-opacity:1;" d="M 140.664062 79.570312 C 139.960938 79.921875 138.984375 80.859375 138.476562 81.601562 C 136.367188 84.882812 136.875 87.5 140.273438 90.859375 L 142.539062 93.085938 L 140.234375 95.585938 C 136.953125 99.0625 136.40625 101.757812 138.320312 104.882812 C 139.765625 107.265625 143.515625 108.476562 146.289062 107.421875 C 146.875 107.1875 148.359375 106.015625 149.648438 104.804688 L 151.992188 102.578125 L 154.21875 104.765625 C 156.914062 107.382812 157.65625 107.8125 159.765625 107.8125 C 164.101562 107.8125 167.070312 104.179688 166.25 99.804688 C 166.054688 98.867188 165.234375 97.617188 163.59375 95.859375 L 161.210938 93.320312 L 163.164062 91.289062 C 165.859375 88.554688 166.523438 87.070312 166.328125 84.6875 C 165.976562 81.328125 163.398438 78.90625 160.117188 78.90625 C 157.5 78.90625 156.523438 79.375 153.945312 81.835938 L 151.71875 83.945312 L 149.765625 81.992188 C 148.710938 80.898438 147.382812 79.765625 146.796875 79.453125 C 145.390625 78.710938 142.304688 78.789062 140.664062 79.570312 Z M 147.65625 85.703125 C 149.257812 87.304688 150.976562 88.710938 151.484375 88.867188 C 152.1875 89.0625 152.929688 88.554688 155.625 85.976562 C 159.296875 82.460938 160.3125 82.109375 161.679688 83.828125 C 162.148438 84.414062 162.5 85.117188 162.5 85.429688 C 162.5 85.742188 161.09375 87.460938 159.375 89.257812 C 157.460938 91.25 156.25 92.851562 156.25 93.359375 C 156.25 93.867188 157.460938 95.46875 159.375 97.460938 C 161.09375 99.257812 162.5 101.015625 162.5 101.367188 C 162.5 101.71875 162.070312 102.421875 161.484375 102.96875 C 160.039062 104.414062 158.90625 103.984375 155.46875 100.546875 C 153.828125 98.945312 152.1875 97.65625 151.835938 97.65625 C 151.445312 97.65625 149.648438 99.0625 147.851562 100.78125 C 144.414062 104.0625 143.515625 104.453125 142.1875 103.125 C 140.742188 101.679688 141.171875 100.546875 144.335938 97.304688 C 146.289062 95.273438 147.265625 93.984375 147.265625 93.359375 C 147.265625 92.734375 146.289062 91.445312 144.335938 89.414062 C 141.992188 87.03125 141.40625 86.171875 141.40625 85.234375 C 141.40625 83.90625 142.578125 82.8125 143.945312 82.8125 C 144.375 82.8125 145.976562 84.0625 147.65625 85.703125 Z M 147.65625 85.703125 "/>
<path style=" stroke:none;fill-rule:nonzero;fill:rgb(0%,0%,0%);fill-opacity:1;" d="M 96.875 82.421875 C 96.132812 82.8125 92.851562 85.820312 89.570312 89.140625 C 83.28125 95.546875 82.421875 96.914062 83.007812 99.726562 C 83.945312 104.023438 87.929688 106.015625 92.460938 104.492188 L 93.359375 104.21875 L 93.4375 142.421875 L 93.554688 180.664062 L 94.492188 181.992188 C 97.1875 185.78125 103.085938 185.390625 105.390625 181.328125 L 106.25 179.765625 L 106.25 141.835938 C 106.25 120.976562 106.367188 103.90625 106.5625 103.90625 C 106.71875 103.945312 107.265625 104.179688 107.8125 104.492188 C 108.359375 104.804688 109.53125 105.039062 110.46875 105.078125 C 114.84375 105.117188 117.929688 101.09375 116.796875 96.835938 C 116.40625 95.46875 115.3125 94.140625 110.820312 89.53125 C 107.773438 86.40625 104.492188 83.359375 103.554688 82.773438 C 101.445312 81.40625 98.984375 81.289062 96.875 82.421875 Z M 106.992188 91.5625 C 113.359375 97.929688 113.828125 98.710938 112.304688 100.390625 C 111.09375 101.757812 109.6875 101.367188 107.070312 99.023438 C 105.742188 97.851562 104.53125 96.875 104.375 96.875 C 104.179688 96.875 103.710938 97.109375 103.28125 97.421875 C 102.539062 97.96875 102.539062 98.945312 102.34375 138.710938 L 102.148438 179.414062 L 101.132812 180.15625 C 100.039062 180.976562 98.90625 180.859375 97.851562 179.84375 C 97.34375 179.296875 97.265625 174.335938 97.265625 139.179688 C 97.265625 102.421875 97.226562 99.023438 96.601562 98.359375 C 95.625 97.265625 94.609375 97.5 92.5 99.414062 C 90.3125 101.367188 88.867188 101.679688 87.695312 100.390625 C 86.171875 98.710938 86.640625 97.929688 93.007812 91.5625 C 97.578125 86.992188 99.257812 85.546875 100 85.546875 C 100.742188 85.546875 102.421875 86.992188 106.992188 91.5625 Z M 106.992188 91.5625 "/>
<path style=" stroke:none;fill-rule:nonzero;fill:rgb(0%,0%,0%);fill-opacity:1;" d="M 45.117188 121.328125 C 43.4375 122.1875 32.5 133.125 31.601562 134.84375 C 30.15625 137.617188 31.054688 141.171875 33.671875 143.046875 C 35.039062 143.984375 38.28125 144.296875 40.15625 143.632812 L 41.015625 143.320312 L 41.015625 161.210938 C 41.015625 177.734375 41.09375 179.21875 41.757812 180.664062 C 43.046875 183.4375 45.78125 185 48.632812 184.570312 C 50.820312 184.257812 53.359375 182.109375 53.90625 180.15625 C 54.140625 179.257812 54.296875 171.875 54.296875 160.820312 C 54.296875 151.015625 54.375 142.96875 54.414062 142.96875 C 54.492188 142.96875 55.15625 143.242188 55.820312 143.59375 C 57.460938 144.414062 60.585938 144.140625 62.03125 143.085938 C 64.648438 141.132812 65.664062 137.460938 64.296875 134.84375 C 63.4375 133.242188 51.523438 121.601562 50.273438 121.09375 C 48.710938 120.507812 46.484375 120.625 45.117188 121.328125 Z M 49.140625 125.15625 C 49.726562 125.46875 52.617188 128.164062 55.585938 131.171875 C 61.289062 136.992188 61.757812 137.851562 60.15625 139.453125 C 58.945312 140.664062 57.96875 140.390625 55.46875 138.085938 C 53.046875 135.859375 52.226562 135.546875 50.9375 136.484375 C 50.234375 137.03125 50.195312 137.851562 50 158.398438 C 49.804688 181.601562 49.921875 180.46875 47.617188 180.46875 C 45.273438 180.46875 45.351562 181.054688 45.234375 158.242188 C 45.117188 138.164062 45.078125 137.421875 44.375 136.875 C 43.203125 136.015625 42.734375 136.171875 40.429688 138.28125 C 39.257812 139.335938 37.929688 140.234375 37.539062 140.234375 C 36.5625 140.234375 35.273438 139.101562 34.960938 137.929688 C 34.726562 137.148438 35.46875 136.25 40.898438 130.820312 C 44.296875 127.382812 47.304688 124.609375 47.578125 124.609375 C 47.851562 124.609375 48.554688 124.84375 49.140625 125.15625 Z M 49.140625 125.15625 "/>
<path style=" stroke:none;fill-rule:nonzero;fill:rgb(0%,0%,0%);fill-opacity:1;" d="M 149.609375 121.132812 C 148.4375 121.601562 136.484375 133.359375 135.703125 134.84375 C 134.335938 137.460938 135.351562 141.132812 138.007812 143.125 C 139.179688 143.984375 142.65625 144.257812 144.453125 143.632812 L 145.3125 143.320312 L 145.3125 161.367188 C 145.3125 178.59375 145.351562 179.53125 146.09375 181.015625 C 147.65625 184.257812 151.523438 185.546875 154.648438 183.90625 C 156.796875 182.8125 157.8125 181.484375 158.242188 179.257812 C 158.398438 178.320312 158.554688 169.765625 158.59375 160.273438 L 158.59375 143.007812 L 160.039062 143.632812 C 160.9375 143.984375 162.1875 144.140625 163.320312 144.0625 C 167.8125 143.632812 170.429688 138.828125 168.398438 134.84375 C 167.421875 133.007812 156.015625 121.679688 154.570312 121.132812 C 153.242188 120.625 150.9375 120.625 149.609375 121.132812 Z M 158.90625 130.625 C 163.867188 135.546875 164.960938 136.796875 164.960938 137.695312 C 164.960938 138.945312 163.671875 140.234375 162.460938 140.234375 C 162.03125 140.234375 160.664062 139.257812 159.375 138.085938 C 156.835938 135.742188 155.859375 135.46875 154.921875 136.796875 C 154.375 137.578125 154.296875 140.273438 154.296875 158.359375 C 154.296875 177.070312 154.21875 179.101562 153.632812 179.765625 C 152.890625 180.625 151.210938 180.664062 150.15625 179.921875 C 149.453125 179.375 149.414062 178.632812 149.296875 158.4375 L 149.179688 137.5 L 148.242188 136.875 C 147.109375 136.132812 146.328125 136.484375 143.867188 138.710938 C 141.992188 140.429688 140.976562 140.585938 139.84375 139.453125 C 138.242188 137.851562 138.710938 136.992188 144.257812 131.367188 C 149.296875 126.171875 151.171875 124.609375 152.304688 124.609375 C 152.617188 124.609375 155.585938 127.304688 158.90625 130.625 Z M 158.90625 130.625 "/>
</g>
</svg>
