<?xml version="1.0" encoding="UTF-8"?>
<svg xmlns="http://www.w3.org/2000/svg" xmlns:xlink="http://www.w3.org/1999/xlink" width="200px" height="200px" viewBox="0 0 200 200" version="1.1">
<g id="surface1">
<path style=" stroke:none;fill-rule:nonzero;fill:rgb(0%,0%,0%);fill-opacity:1;" d="M 79.140625 3.203125 C 78.632812 5 77.617188 8.359375 76.953125 10.742188 C 76.289062 13.085938 75.507812 15.234375 75.273438 15.46875 C 75 15.703125 72.890625 16.5625 70.507812 17.382812 C 68.164062 18.203125 64.296875 19.804688 61.914062 20.9375 L 57.617188 23.007812 L 43.554688 15.273438 L 29.414062 29.414062 L 15.273438 43.515625 L 16.5625 45.898438 C 17.265625 47.1875 19.023438 50.351562 20.429688 52.929688 L 23.007812 57.617188 L 20.898438 61.914062 C 19.765625 64.257812 18.164062 68.125 17.34375 70.507812 C 16.5625 72.851562 15.703125 75 15.46875 75.273438 C 15.234375 75.507812 12.226562 76.523438 8.789062 77.539062 C 5.351562 78.515625 1.953125 79.53125 1.25 79.726562 L 0 80.15625 L 0 119.84375 L 1.25 120.273438 C 1.953125 120.46875 5.351562 121.484375 8.789062 122.460938 C 12.226562 123.476562 15.234375 124.492188 15.46875 124.726562 C 15.703125 125 16.5625 127.109375 17.34375 129.492188 C 18.164062 131.835938 19.765625 135.703125 20.898438 138.085938 L 22.96875 142.382812 L 19.140625 149.414062 L 15.273438 156.445312 L 29.414062 170.585938 L 43.515625 184.726562 L 45.898438 183.4375 C 47.1875 182.734375 50.351562 180.976562 52.929688 179.570312 L 57.617188 176.992188 L 61.914062 179.0625 C 64.296875 180.195312 68.164062 181.796875 70.507812 182.617188 C 72.890625 183.4375 75 184.296875 75.273438 184.53125 C 75.507812 184.765625 76.289062 186.875 76.953125 189.257812 C 77.617188 191.601562 78.632812 195 79.140625 196.796875 L 80.117188 200 L 100.078125 199.921875 L 120.039062 199.804688 L 122.265625 192.1875 L 124.453125 184.609375 L 129.414062 182.773438 C 132.148438 181.796875 136.171875 180.078125 138.398438 179.023438 L 142.421875 177.070312 L 145.9375 178.984375 C 147.851562 180.039062 151.015625 181.796875 152.929688 182.851562 L 156.484375 184.726562 L 184.765625 156.445312 L 177.03125 142.382812 L 178.59375 139.296875 C 180.351562 135.78125 183.476562 127.96875 183.828125 126.171875 C 183.984375 125.507812 184.296875 124.84375 184.53125 124.6875 C 184.765625 124.53125 188.28125 123.4375 192.382812 122.226562 L 199.804688 120.078125 L 199.804688 79.921875 L 192.382812 77.773438 C 188.28125 76.5625 184.765625 75.46875 184.53125 75.3125 C 184.296875 75.15625 183.984375 74.492188 183.828125 73.828125 C 183.476562 72.03125 180.351562 64.21875 178.59375 60.703125 L 177.03125 57.617188 L 184.765625 43.554688 L 156.484375 15.273438 L 152.929688 17.148438 C 151.015625 18.203125 147.851562 19.960938 145.9375 21.015625 L 142.421875 22.929688 L 138.398438 20.976562 C 136.171875 19.921875 132.148438 18.203125 129.414062 17.226562 L 124.453125 15.390625 L 122.265625 7.8125 L 120.039062 0.195312 L 100.078125 0.078125 L 80.117188 0 Z M 110.9375 46.25 C 132.421875 51.171875 147.773438 66.015625 153.203125 87.109375 C 154.179688 90.78125 154.414062 92.695312 154.570312 97.695312 C 154.882812 106.523438 153.710938 113.320312 150.585938 120.976562 C 146.875 129.960938 139.765625 138.984375 132.109375 144.335938 L 129.335938 146.289062 L 129.296875 155.078125 L 129.296875 163.90625 L 125.507812 165.390625 C 116.992188 168.671875 109.257812 170.039062 99.023438 170.078125 C 89.765625 170.078125 83.085938 168.789062 74.335938 165.351562 L 70.703125 163.945312 L 70.703125 155.117188 L 70.664062 146.289062 L 68.554688 144.804688 C 57.226562 136.953125 49.296875 124.882812 46.210938 110.859375 C 45.234375 106.25 45.234375 93.75 46.210938 89.140625 C 51.328125 65.820312 69.414062 49.023438 93.164062 45.546875 C 95.703125 45.195312 108.476562 45.664062 110.9375 46.25 Z M 110.9375 46.25 "/>
<path style=" stroke:none;fill-rule:nonzero;fill:rgb(0%,0%,0%);fill-opacity:1;" d="M 93.398438 70.9375 C 89.882812 77.070312 87.070312 82.148438 87.148438 82.226562 C 87.539062 82.539062 113.359375 82.890625 113.242188 82.539062 C 112.773438 81.40625 100.234375 59.765625 100.039062 59.765625 C 99.882812 59.765625 96.914062 64.804688 93.398438 70.9375 Z M 93.398438 70.9375 "/>
</g>
</svg>
