<?xml version="1.0" encoding="UTF-8"?>
<svg xmlns="http://www.w3.org/2000/svg" xmlns:xlink="http://www.w3.org/1999/xlink" width="200px" height="200px" viewBox="0 0 200 200" version="1.1">
<g id="surface1">
<path style=" stroke:none;fill-rule:nonzero;fill:rgb(0%,0%,0%);fill-opacity:1;" d="M 175.351562 0.898438 C 173.90625 1.367188 172.109375 2.265625 171.367188 2.851562 C 168.242188 5.195312 167.578125 6.523438 160.898438 22.734375 L 154.414062 38.476562 L 151.328125 38.710938 C 147.695312 38.945312 145.742188 39.84375 143.632812 42.148438 C 141.992188 43.945312 141.171875 45.742188 140.820312 48.125 C 140.625 49.609375 140.859375 51.054688 141.992188 54.492188 C 142.1875 55.15625 140.976562 56.40625 134.882812 61.914062 C 130.859375 65.585938 124.375 71.71875 120.46875 75.585938 C 106.289062 89.726562 100 97.851562 96.640625 106.484375 L 95.234375 110.15625 L 80.976562 110.15625 C 71.953125 110.15625 66.484375 110.3125 65.976562 110.546875 C 65 111.09375 64.0625 112.96875 64.0625 114.453125 C 64.0625 115.273438 64.414062 116.054688 65.195312 116.835938 L 66.328125 117.96875 L 90.195312 117.96875 L 90.3125 132.304688 L 90.429688 146.679688 L 91.523438 149.023438 C 94.140625 154.648438 99.84375 157.695312 105.78125 156.601562 C 111.796875 155.46875 115.742188 151.171875 116.25 145.117188 C 116.523438 141.953125 117.1875 140.625 118.515625 140.625 C 120.195312 140.625 121.367188 141.953125 121.640625 144.179688 C 121.953125 146.5625 123.320312 149.414062 124.882812 150.859375 C 125.46875 151.445312 127.03125 152.382812 128.320312 152.96875 C 131.601562 154.492188 134.921875 154.492188 138.007812 153.007812 C 140.546875 151.757812 141.914062 150.273438 143.320312 147.265625 L 144.335938 145.117188 L 144.570312 117.929688 L 164.960938 118.046875 C 185.15625 118.164062 185.351562 118.164062 187.109375 119.023438 C 188.085938 119.53125 189.296875 120.546875 189.84375 121.367188 C 190.820312 122.773438 190.820312 122.890625 190.9375 132.1875 C 191.171875 149.296875 189.726562 158.046875 185.15625 167.382812 C 178.242188 181.445312 164.140625 189.453125 142.96875 191.367188 C 136.914062 191.953125 62.695312 191.953125 56.640625 191.367188 C 30.898438 189.023438 15.976562 177.96875 10.78125 157.382812 C 9.179688 151.054688 8.59375 144.765625 8.59375 133.554688 C 8.59375 123.867188 8.632812 123.515625 9.492188 121.835938 C 10.15625 120.585938 10.9375 119.882812 12.304688 119.140625 C 14.21875 118.164062 14.375 118.164062 26.09375 117.96875 L 37.96875 117.773438 L 38.90625 116.679688 C 39.492188 116.015625 39.84375 115.078125 39.84375 114.335938 C 39.84375 112.734375 38.554688 110.625 37.382812 110.351562 C 36.914062 110.234375 30.976562 110.15625 24.21875 110.234375 C 12.421875 110.351562 11.835938 110.390625 9.6875 111.25 C 7.070312 112.304688 3.984375 114.960938 2.617188 117.304688 C 0.625 120.664062 0.390625 122.382812 0.390625 132.96875 C 0.390625 147.5 1.25 154.726562 3.945312 163.203125 C 6.640625 171.523438 10.234375 177.5 15.976562 183.242188 C 24.921875 192.148438 35.742188 196.875 52.929688 199.296875 C 55.625 199.6875 66.71875 199.804688 100 199.804688 C 140.078125 199.804688 143.945312 199.765625 148.242188 199.101562 C 164.414062 196.640625 174.882812 191.953125 183.632812 183.242188 C 189.296875 177.578125 193.046875 171.328125 195.625 163.242188 C 198.359375 154.6875 199.21875 147.5 199.21875 132.96875 C 199.21875 122.382812 198.984375 120.664062 196.992188 117.304688 C 195.625 114.960938 192.539062 112.304688 189.921875 111.25 C 187.8125 110.390625 187.109375 110.351562 176.679688 110.234375 C 168.4375 110.15625 165.625 110 165.625 109.648438 C 165.625 109.375 166.054688 106.289062 166.5625 102.734375 C 167.578125 95.898438 168.867188 83.828125 169.53125 74.84375 C 169.921875 69.492188 170.117188 68.789062 171.40625 68.75 C 172.34375 68.75 174.882812 67.226562 176.210938 65.9375 C 176.914062 65.234375 177.890625 63.710938 178.4375 62.539062 C 180 59.140625 179.296875 54.375 176.875 51.679688 C 176.445312 51.210938 176.171875 50.585938 176.289062 50.273438 C 176.40625 49.960938 180.585938 43.671875 185.585938 36.289062 C 190.585938 28.90625 195.117188 21.796875 195.625 20.546875 C 196.875 17.421875 196.71875 13.007812 195.195312 9.648438 C 194.023438 7.070312 190.898438 3.59375 188.476562 2.148438 C 184.648438 -0.078125 179.609375 -0.546875 175.351562 0.898438 Z M 183.710938 8.828125 C 187.226562 10.625 189.21875 14.453125 188.164062 17.421875 C 187.851562 18.28125 183.4375 25.117188 178.320312 32.65625 L 169.023438 46.367188 L 165.664062 44.609375 C 163.828125 43.632812 162.148438 42.695312 161.953125 42.539062 C 161.5625 42.1875 173.984375 11.757812 175.117188 10.273438 C 175.546875 9.726562 176.445312 9.0625 177.109375 8.75 C 178.789062 8.046875 182.1875 8.085938 183.710938 8.828125 Z M 160.898438 51.210938 C 165.742188 53.789062 170.039062 56.25 170.46875 56.640625 C 172.03125 58.164062 170.859375 60.9375 168.671875 60.9375 C 167.421875 60.9375 150.15625 51.875 149.335938 50.820312 C 149.0625 50.46875 148.828125 49.804688 148.828125 49.296875 C 148.828125 48.242188 150.429688 46.484375 151.40625 46.484375 C 151.757812 46.484375 156.054688 48.59375 160.898438 51.210938 Z M 156.445312 64.140625 C 157.070312 64.414062 157.382812 64.804688 157.265625 65.195312 C 153.125 79.0625 147.109375 97.265625 144.023438 105.46875 L 142.304688 109.960938 L 132.851562 110.078125 C 125.234375 110.15625 123.4375 110.078125 123.4375 109.648438 C 123.4375 108.125 133.203125 92.929688 140.820312 82.617188 C 144.296875 77.929688 155.195312 63.671875 155.351562 63.671875 C 155.390625 63.671875 155.898438 63.867188 156.445312 64.140625 Z M 140.742188 69.375 C 128.046875 86.015625 117.96875 101.25 115.195312 108.085938 L 114.375 110.15625 L 109.140625 110.15625 C 106.25 110.15625 103.90625 110.039062 103.90625 109.882812 C 103.90625 109.6875 104.6875 108.007812 105.664062 106.054688 C 108.671875 100.039062 114.53125 92.851562 125.195312 82.226562 C 131.289062 76.09375 144.21875 64.023438 144.453125 64.257812 C 144.53125 64.296875 142.851562 66.640625 140.742188 69.375 Z M 160.351562 87.734375 C 159.6875 94.335938 157.96875 106.835938 157.460938 108.789062 C 157.1875 109.960938 157.148438 109.960938 154.179688 110.078125 C 152.226562 110.15625 151.171875 110.039062 151.171875 109.765625 C 151.171875 109.53125 152.578125 105.429688 154.257812 100.664062 C 155.9375 95.898438 158.085938 89.570312 159.023438 86.640625 C 159.921875 83.671875 160.742188 81.328125 160.820312 81.40625 C 160.898438 81.484375 160.703125 84.335938 160.351562 87.734375 Z M 136.328125 129.960938 C 136.328125 136.875 136.171875 142.617188 135.9375 143.398438 C 135.429688 145.234375 134.648438 145.859375 132.890625 145.820312 C 131.015625 145.78125 129.6875 144.296875 129.6875 142.226562 C 129.6875 141.445312 129.21875 139.882812 128.671875 138.75 C 126.289062 133.984375 120.664062 131.484375 115.585938 132.929688 C 111.289062 134.21875 108.867188 137.617188 108.242188 143.125 C 107.96875 145.429688 107.695312 146.367188 106.992188 147.109375 C 104.765625 149.492188 100.664062 148.945312 99.21875 146.054688 C 98.476562 144.648438 98.4375 143.710938 98.4375 131.25 L 98.4375 117.96875 L 136.328125 117.96875 Z M 136.328125 129.960938 "/>
<path style=" stroke:none;fill-rule:nonzero;fill:rgb(0%,0%,0%);fill-opacity:1;" d="M 49.492188 110.9375 C 48.28125 111.914062 47.539062 114.140625 48.046875 115.429688 C 48.945312 117.8125 52.8125 118.828125 54.648438 117.148438 C 55.898438 115.976562 56.25 114.726562 55.820312 113.125 C 55.3125 111.328125 53.789062 110.15625 51.953125 110.15625 C 51.09375 110.15625 50.078125 110.46875 49.492188 110.9375 Z M 49.492188 110.9375 "/>
</g>
</svg>
